<svg width="314" height="108" viewBox="0 0 314 108" fill="none" xmlns="http://www.w3.org/2000/svg">
<rect x="16" y="19" width="56" height="70" rx="4" fill="#193CB8"/>
<path d="M68 19C70.2091 19 72 20.7909 72 23V85C72 87.2091 70.2091 89 68 89H20C17.7909 89 16 87.2091 16 85V23C16 20.7909 17.7909 19 20 19H68ZM56.7676 27V80.5098H64.4863V27H56.7676ZM23 56.1543V58.835C23.0001 64.2029 27.3528 68.5545 32.7207 68.5547H51.8047V61.1152H32.7207C31.4618 61.115 30.4405 60.0939 30.4404 58.835V56.1543H23ZM23.1367 31.0137V38.4531H40.7988V44.0283C40.7987 44.6246 40.315 45.1082 39.7188 45.1084H23V52.5547H30.4404V52.5488H39.7188C44.424 52.5486 48.2382 48.7336 48.2383 44.0283V35.9336C48.2383 33.2164 46.0356 31.0137 43.3184 31.0137H23.1367Z" fill="#193CB8"/>
<path d="M64.4863 80.5098H56.7676V27H64.4863V80.5098ZM30.4404 58.835C30.4405 60.0939 31.4618 61.115 32.7207 61.1152H51.8047V68.5547H32.7207C27.3528 68.5545 23.0001 64.2029 23 58.835V56.1543H30.4404V58.835ZM43.3184 31.0137C46.0356 31.0137 48.2383 33.2164 48.2383 35.9336V44.0283C48.2382 48.7336 44.424 52.5486 39.7188 52.5488H30.4404V52.5547H23V45.1084H39.7188C40.315 45.1082 40.7987 44.6246 40.7988 44.0283V38.4531H23.1367V31.0137H43.3184Z" fill="white"/>
<path d="M80 16V92H84V16H80Z" fill="#99A1AF"/>
<path d="M135.711 80.6685H128.396V27.3315H135.711V80.6685ZM181.806 59.9331C183.131 59.9333 184.205 61.0073 184.205 62.3325V77.7505C184.205 79.0757 183.131 80.1497 181.806 80.1499H151.124C149.799 80.1499 148.724 79.0759 148.724 77.7505V62.3325C148.724 61.0071 149.799 59.9331 151.124 59.9331H181.806ZM124.249 78.3071H117.106V50.3706H106.623V44.2075H117.106V28.2524H124.249V78.3071ZM156.27 74.1021H176.717V65.981H156.27V74.1021ZM99.4395 60.6099H112.53V68.0503H98.1201C94.7402 68.0503 92.0001 65.31 92 61.9302V32.5161H99.4395V60.6099ZM184.205 57.5708H176.545V27.3882H184.205V57.5708ZM158.889 29.5913C166.057 29.5913 171.868 35.4018 171.868 42.5698C171.868 49.738 166.057 55.5493 158.889 55.5493H153.629C146.461 55.5491 140.65 49.7379 140.65 42.5698C140.651 35.4019 146.461 29.5915 153.629 29.5913H158.889ZM153.629 37.0308C150.57 37.031 148.09 39.5109 148.09 42.5698C148.09 45.6289 150.57 48.1087 153.629 48.1089H158.889C161.948 48.1089 164.428 45.629 164.428 42.5698C164.428 39.5108 161.948 37.0308 158.889 37.0308H153.629Z" fill="#1E2939"/>
<path d="M229.031 31.5938C231.719 31.5938 234.208 32.0625 236.5 33C238.792 33.9375 240.771 35.2396 242.438 36.9062C244.104 38.5521 245.406 40.5312 246.344 42.8438C247.302 45.1354 247.781 47.6354 247.781 50.3438V57.6562C247.781 60.3854 247.302 62.8958 246.344 65.1875C245.406 67.4792 244.104 69.4583 242.438 71.125C240.771 72.7708 238.792 74.0625 236.5 75C234.208 75.9375 231.719 76.4062 229.031 76.4062H207.094C206.51 76.4062 205.969 76.3021 205.469 76.0938C204.969 75.8854 204.531 75.6042 204.156 75.25C203.802 74.875 203.521 74.4375 203.312 73.9375C203.104 73.4375 203 72.8958 203 72.3125V35.6875C203 35.125 203.104 34.5938 203.312 34.0938C203.521 33.5938 203.802 33.1562 204.156 32.7812C204.531 32.4062 204.969 32.1146 205.469 31.9062C205.969 31.6979 206.51 31.5938 207.094 31.5938H229.031ZM282.175 31.5938C284.008 31.5938 285.654 31.8333 287.112 32.3125C288.571 32.7708 289.852 33.3958 290.956 34.1875C292.081 34.9583 293.029 35.8542 293.8 36.875C294.591 37.8958 295.237 38.9688 295.737 40.0938C296.258 41.1979 296.633 42.3229 296.862 43.4688C297.091 44.5938 297.206 45.6562 297.206 46.6562V47.3438C297.206 49.1979 296.977 50.8542 296.519 52.3125C296.06 53.7708 295.435 55.0625 294.644 56.1875C293.873 57.2917 292.977 58.2396 291.956 59.0312C290.935 59.8229 289.862 60.4688 288.737 60.9688C287.633 61.4688 286.508 61.8333 285.362 62.0625C284.237 62.2917 283.175 62.4062 282.175 62.4062H263.8V54.2812H282.175C283.216 54.1979 284.154 53.9896 284.987 53.6562C285.841 53.3021 286.571 52.8333 287.175 52.25C287.779 51.6667 288.248 50.9688 288.581 50.1562C288.914 49.3229 289.081 48.3854 289.081 47.3438V46.6562C288.977 45.6354 288.758 44.6979 288.425 43.8438C288.091 42.9896 287.633 42.2604 287.05 41.6562C286.487 41.0521 285.8 40.5833 284.987 40.25C284.175 39.8958 283.237 39.7188 282.175 39.7188H263.862C262.779 39.7188 261.956 40 261.394 40.5625C260.831 41.125 260.55 41.9375 260.55 43V76.4062H252.425V43C252.425 40.9167 252.8 39.1458 253.55 37.6875C254.321 36.2292 255.269 35.0521 256.394 34.1562C257.539 33.2604 258.779 32.6146 260.112 32.2188C261.446 31.8021 262.675 31.5938 263.8 31.5938H282.175ZM211.125 68.2812H229.031C230.615 68.2812 232.052 68.0312 233.344 67.5312C234.656 67.0104 235.781 66.2917 236.719 65.375C237.656 64.4375 238.375 63.3229 238.875 62.0312C239.396 60.7188 239.656 59.2604 239.656 57.6562V50.3438C239.656 48.7604 239.396 47.3125 238.875 46C238.375 44.6875 237.656 43.5729 236.719 42.6562C235.781 41.7188 234.656 41 233.344 40.5C232.052 39.9792 230.615 39.7188 229.031 39.7188H211.125V68.2812Z" fill="#1E2939"/>
</svg>
