<svg width="473" height="109" viewBox="0 0 473 109" fill="none" xmlns="http://www.w3.org/2000/svg">
<path d="M115 24.4062C117.209 24.4062 119 26.1971 119 28.4062V80.4062C119 82.6154 117.209 84.4062 115 84.4062H20C17.7909 84.4062 16 82.6154 16 80.4062V28.4062C16 26.1971 17.7909 24.4062 20 24.4062H115ZM26.4746 32C25.8914 32 25.3495 32.1042 24.8496 32.3125C24.3497 32.5208 23.912 32.8126 23.5371 33.1875C23.183 33.5625 22.9017 34.0001 22.6934 34.5C22.4851 35 22.3809 35.5313 22.3809 36.0938V76.8125H30.5059V40.125H57.3184C57.4849 40.125 57.6622 40.1354 57.8496 40.1562C58.0578 40.1771 58.2455 40.2501 58.4121 40.375C58.5996 40.4791 58.7454 40.6563 58.8496 40.9062C58.9746 41.1354 59.0371 41.4792 59.0371 41.9375V47.8125C59.0371 48.875 58.8704 49.8229 58.5371 50.6562C58.2038 51.4687 57.7246 52.1667 57.0996 52.75C56.4955 53.3332 55.7662 53.8021 54.9121 54.1562C54.0789 54.4895 53.1516 54.6979 52.1309 54.7812H33.7559V62.9062H39.5996L56.5371 76.8125H69.0996L52.1309 62.9062C53.1308 62.9062 54.1935 62.7916 55.3184 62.5625C56.4641 62.3334 57.5893 61.9687 58.6934 61.4688C59.8183 60.948 60.8913 60.2916 61.9121 59.5C62.9329 58.7084 63.8288 57.7603 64.5996 56.6562C65.3913 55.5313 66.0163 54.2395 66.4746 52.7812C66.9329 51.3229 67.1621 49.6667 67.1621 47.8125V41.875C67.1621 40.875 66.985 39.8021 66.6309 38.6562C66.2975 37.5105 65.735 36.4479 64.9434 35.4688C64.1725 34.4688 63.162 33.6458 61.9121 33C60.6622 32.3334 59.1307 32 57.3184 32H26.4746ZM76.0244 32C75.4413 32.0001 74.8992 32.1042 74.3994 32.3125C73.8996 32.5208 73.4618 32.8126 73.0869 33.1875C72.7329 33.5624 72.4514 34.0001 72.2432 34.5C72.0349 34.9999 71.9307 35.5313 71.9307 36.0938V65.4062C71.9307 67.5103 72.3057 69.2917 73.0557 70.75C73.8264 72.1873 74.7746 73.3646 75.8994 74.2812C77.0451 75.177 78.285 75.8229 79.6182 76.2188C80.9513 76.6145 82.1808 76.8124 83.3057 76.8125H112.618V68.6875H83.3682C82.2851 68.6874 81.4618 68.4061 80.8994 67.8438C80.3371 67.2813 80.0557 66.4686 80.0557 65.4062V40.125H112.618V32H76.0244ZM83.3057 50.3125V58.5H108.962V50.3125H83.3057Z" fill="#193CB8"/>
<path d="M57.3188 32C59.1313 32 60.6626 32.3333 61.9126 33C63.1626 33.6458 64.173 34.4688 64.9438 35.4688C65.7355 36.4479 66.298 37.5104 66.6313 38.6562C66.9855 39.8021 67.1626 40.875 67.1626 41.875V47.8125C67.1626 49.6667 66.9334 51.3229 66.4751 52.7812C66.0168 54.2396 65.3918 55.5312 64.6001 56.6562C63.8293 57.7604 62.9334 58.7083 61.9126 59.5C60.8918 60.2917 59.8188 60.9479 58.6938 61.4688C57.5897 61.9688 56.4647 62.3333 55.3188 62.5625C54.1938 62.7917 53.1313 62.9062 52.1313 62.9062L69.1001 76.8125H56.5376L39.6001 62.9062H33.7563V54.7812H52.1313C53.1522 54.6979 54.0793 54.4896 54.9126 54.1562C55.7668 53.8021 56.4959 53.3333 57.1001 52.75C57.7251 52.1667 58.2043 51.4688 58.5376 50.6562C58.8709 49.8229 59.0376 48.875 59.0376 47.8125V41.9375C59.0376 41.4792 58.9751 41.1354 58.8501 40.9062C58.7459 40.6562 58.6001 40.4792 58.4126 40.375C58.2459 40.25 58.0584 40.1771 57.8501 40.1562C57.6626 40.1354 57.4855 40.125 57.3188 40.125H30.5063V76.8125H22.3813V36.0938C22.3813 35.5312 22.4855 35 22.6938 34.5C22.9022 34 23.1834 33.5625 23.5376 33.1875C23.9126 32.8125 24.3501 32.5208 24.8501 32.3125C25.3501 32.1042 25.8918 32 26.4751 32H57.3188ZM112.619 40.125H80.0562V65.4062C80.0562 66.4687 80.3375 67.2813 80.8999 67.8438C81.4624 68.4062 82.2854 68.6875 83.3687 68.6875H112.619V76.8125H83.3062C82.1812 76.8125 80.9519 76.6146 79.6187 76.2188C78.2854 75.8229 77.0457 75.177 75.8999 74.2812C74.775 73.3646 73.827 72.1874 73.0562 70.75C72.3062 69.2917 71.9312 67.5104 71.9312 65.4062V36.0938C71.9312 35.5313 72.0353 35 72.2437 34.5C72.452 34.0001 72.7333 33.5625 73.0874 33.1875C73.4623 32.8126 73.9 32.5208 74.3999 32.3125C74.8998 32.1042 75.4417 32 76.0249 32H112.619V40.125ZM108.962 58.5H83.3062V50.3125H108.962V58.5Z" fill="white"/>
<path d="M127 16.4062V92.4062H131V16.4062H127Z" fill="#99A1AF"/>
<path d="M141.5 31.6956C142.271 31.3831 143.062 31.3102 143.875 31.4769C144.687 31.6227 145.385 31.9977 145.969 32.6019L175.656 63.5706V32.0081H183.781V73.3519C183.781 73.9351 183.667 74.477 183.438 74.9769C183.229 75.4768 182.937 75.9145 182.562 76.2894C182.208 76.6435 181.781 76.9248 181.281 77.1331C180.781 77.3415 180.25 77.4456 179.688 77.4456C179.188 77.4456 178.677 77.3519 178.156 77.1644C177.656 76.9769 177.208 76.6747 176.812 76.2581L147.125 45.2581V76.8206H139V35.4769C139 34.6436 139.229 33.8935 139.688 33.2269C140.167 32.5394 140.771 32.029 141.5 31.6956ZM286.788 31.6644C287.642 31.3312 288.528 31.279 289.444 31.5081C290.319 31.7582 291.038 32.2479 291.601 32.9769C292.163 33.706 292.444 34.5396 292.444 35.4769V76.8206H284.257V50.1331L269.851 75.4769C269.496 76.1226 268.996 76.6123 268.351 76.9456C267.726 77.2789 267.048 77.4456 266.319 77.4456C265.611 77.4456 264.944 77.2788 264.319 76.9456C263.715 76.6124 263.236 76.1225 262.882 75.4769L248.413 50.1331V76.8206H240.288V35.4769C240.288 34.5394 240.559 33.7061 241.101 32.9769C241.663 32.2478 242.392 31.7581 243.288 31.5081C243.725 31.4041 244.163 31.3727 244.601 31.4144C245.038 31.4353 245.455 31.529 245.851 31.6956C246.267 31.8415 246.642 32.0604 246.976 32.3519C247.309 32.6227 247.59 32.9562 247.819 33.3519L266.319 65.5081L284.819 33.3519C285.299 32.5602 285.955 31.9977 286.788 31.6644ZM229.925 32.0081C230.487 32.0081 231.019 32.1123 231.519 32.3206C232.019 32.529 232.456 32.8207 232.831 33.1956C233.206 33.5706 233.498 34.0082 233.706 34.5081C233.914 35.0081 234.019 35.5395 234.019 36.1019V76.8206H225.894V63.8206H197.331V76.8206H189.206V54.4144C189.206 51.1437 189.769 48.1331 190.894 45.3831C192.019 42.6332 193.581 40.2685 195.581 38.2894C197.581 36.3103 199.946 34.7686 202.675 33.6644C205.404 32.5602 208.383 32.0081 211.612 32.0081H229.925ZM339.213 40.1331H306.65V65.4144C306.65 66.4768 306.932 67.2894 307.494 67.8519C308.057 68.4142 308.88 68.6956 309.963 68.6956H339.213V76.8206H309.9C308.776 76.8206 307.546 76.6226 306.213 76.2269C304.88 75.8311 303.64 75.1851 302.494 74.2894C301.369 73.3728 300.421 72.1955 299.65 70.7581C298.9 69.2999 298.525 67.5185 298.525 65.4144V36.1019C298.525 35.5394 298.63 35.0081 298.838 34.5081C299.046 34.0081 299.327 33.5706 299.682 33.1956C300.057 32.8207 300.494 32.529 300.994 32.3206C301.494 32.1124 302.036 32.0081 302.619 32.0081H339.213V40.1331ZM335.557 58.5081H309.9V50.3206H335.557V58.5081ZM211.612 40.1331C211.362 40.1331 210.831 40.1748 210.019 40.2581C209.227 40.3207 208.3 40.4977 207.237 40.7894C206.196 41.0811 205.091 41.529 203.925 42.1331C202.758 42.7373 201.685 43.5707 200.706 44.6331C199.727 45.6956 198.914 47.0291 198.269 48.6331C197.644 50.2164 197.331 52.1437 197.331 54.4144V55.6956H225.894V40.1331H211.612Z" fill="#1E2939"/>
<path d="M388.641 32C391.329 32 393.818 32.4688 396.11 33.4062C398.402 34.3438 400.381 35.6458 402.047 37.3125C403.714 38.9583 405.016 40.9375 405.954 43.25C406.912 45.5417 407.391 48.0417 407.391 50.75V58.0625C407.391 60.7917 406.912 63.3021 405.954 65.5938C405.016 67.8854 403.714 69.8646 402.047 71.5312C400.381 73.1771 398.402 74.4688 396.11 75.4062C393.818 76.3438 391.329 76.8125 388.641 76.8125H366.704C366.12 76.8125 365.579 76.7083 365.079 76.5C364.579 76.2917 364.141 76.0104 363.766 75.6562C363.412 75.2812 363.131 74.8438 362.922 74.3438C362.714 73.8438 362.61 73.3021 362.61 72.7188V36.0938C362.61 35.5312 362.714 35 362.922 34.5C363.131 34 363.412 33.5625 363.766 33.1875C364.141 32.8125 364.579 32.5208 365.079 32.3125C365.579 32.1042 366.12 32 366.704 32H388.641ZM441.785 32C443.618 32 445.264 32.2396 446.722 32.7188C448.181 33.1771 449.462 33.8021 450.566 34.5938C451.691 35.3646 452.639 36.2604 453.41 37.2812C454.201 38.3021 454.847 39.375 455.347 40.5C455.868 41.6042 456.243 42.7292 456.472 43.875C456.701 45 456.816 46.0625 456.816 47.0625V47.75C456.816 49.6042 456.587 51.2604 456.128 52.7188C455.67 54.1771 455.045 55.4688 454.253 56.5938C453.483 57.6979 452.587 58.6458 451.566 59.4375C450.545 60.2292 449.472 60.875 448.347 61.375C447.243 61.875 446.118 62.2396 444.972 62.4688C443.847 62.6979 442.785 62.8125 441.785 62.8125H423.41V54.6875H441.785C442.826 54.6042 443.764 54.3958 444.597 54.0625C445.451 53.7083 446.181 53.2396 446.785 52.6562C447.389 52.0729 447.858 51.375 448.191 50.5625C448.524 49.7292 448.691 48.7917 448.691 47.75V47.0625C448.587 46.0417 448.368 45.1042 448.035 44.25C447.701 43.3958 447.243 42.6667 446.66 42.0625C446.097 41.4583 445.41 40.9896 444.597 40.6562C443.785 40.3021 442.847 40.125 441.785 40.125H423.472C422.389 40.125 421.566 40.4063 421.003 40.9688C420.441 41.5312 420.16 42.3438 420.16 43.4062V76.8125H412.035V43.4062C412.035 41.3229 412.41 39.5521 413.16 38.0938C413.931 36.6354 414.878 35.4583 416.003 34.5625C417.149 33.6667 418.389 33.0208 419.722 32.625C421.056 32.2083 422.285 32 423.41 32H441.785ZM370.735 68.6875H388.641C390.224 68.6875 391.662 68.4375 392.954 67.9375C394.266 67.4167 395.391 66.6979 396.329 65.7812C397.266 64.8438 397.985 63.7292 398.485 62.4375C399.006 61.125 399.266 59.6667 399.266 58.0625V50.75C399.266 49.1667 399.006 47.7188 398.485 46.4062C397.985 45.0938 397.266 43.9792 396.329 43.0625C395.391 42.125 394.266 41.4062 392.954 40.9062C391.662 40.3854 390.224 40.125 388.641 40.125H370.735V68.6875Z" fill="#1E2939"/>
</svg>
