<svg width="371" height="65" viewBox="0 0 371 65" fill="none" xmlns="http://www.w3.org/2000/svg">
<path d="M83.21 7.06555C85.0667 7.06557 86.5723 8.57108 86.5723 10.4279V54.1339C86.5722 55.9906 85.0667 57.4962 83.21 57.4962H3.3623C1.50555 57.4962 6.26203e-05 55.9907 0 54.1339V10.4279C0 8.57107 1.50551 7.06555 3.3623 7.06555H83.21ZM8.80371 13.4484C8.3138 13.4485 7.85845 13.5361 7.43848 13.7111C7.01842 13.8862 6.65003 14.1313 6.33496 14.4464C6.03746 14.7615 5.80101 15.1299 5.62598 15.5499C5.45109 15.9699 5.36333 16.4164 5.36328 16.8888V51.1134H12.1924V20.2775H34.7285C34.8684 20.2775 35.0174 20.2864 35.1748 20.3038C35.3497 20.3213 35.5075 20.3826 35.6475 20.4874C35.805 20.5749 35.9281 20.7237 36.0156 20.9337C36.1207 21.1263 36.1729 21.4157 36.1729 21.8009V26.7384C36.1728 27.6313 36.0331 28.4287 35.7529 29.129C35.4728 29.8117 35.07 30.3986 34.5449 30.8888C34.0372 31.3789 33.4237 31.7728 32.7061 32.0704C32.0058 32.3505 31.226 32.5258 30.3682 32.5958H14.9238V39.4249H19.8359L34.0713 51.1134H44.6309L30.3682 39.4249C31.2085 39.4249 32.1025 39.3284 33.0479 39.1359C34.0105 38.9433 34.9561 38.6369 35.8838 38.2169C36.8292 37.7792 37.7319 37.2279 38.5898 36.5626C39.4477 35.8973 40.2008 35.0999 40.8486 34.172C41.5139 33.2266 42.0386 32.1406 42.4238 30.9152C42.809 29.6895 43.0019 28.2967 43.002 26.7384V21.7482C43.0019 20.9078 42.8533 20.006 42.5557 19.0431C42.2755 18.08 41.8031 17.1864 41.1377 16.3634C40.4899 15.5231 39.6402 14.8319 38.5898 14.2892C37.5393 13.729 36.2518 13.4484 34.7285 13.4484H8.80371ZM50.4512 13.4484C49.9611 13.4484 49.5051 13.536 49.085 13.7111C48.6651 13.8861 48.2974 14.1315 47.9824 14.4464C47.6849 14.7615 47.4485 15.1298 47.2734 15.5499C47.0985 15.9699 47.0108 16.4163 47.0107 16.8888V41.5265C47.0108 43.2949 47.3257 44.792 47.9561 46.0177C48.6038 47.2257 49.4004 48.2151 50.3457 48.9855C51.3087 49.7383 52.3511 50.2817 53.4717 50.6144C54.5922 50.947 55.6258 51.1133 56.5713 51.1134H81.208V44.2843H56.624C55.7138 44.2842 55.0215 44.0479 54.5488 43.5753C54.0762 43.1026 53.8399 42.4193 53.8398 41.5265V20.2775H81.208V13.4484H50.4512ZM56.5713 28.84V35.7218H78.1348V28.84H56.5713Z" fill="white"/>
<path d="M93.2959 0.341553V64.2199H96.658V0.341553H93.2959Z" fill="white"/>
<path fill-rule="evenodd" clip-rule="evenodd" d="M105.484 13.1918C106.132 12.9293 106.797 12.8682 107.48 13.0082C108.163 13.1309 108.75 13.4458 109.24 13.9535L134.192 39.9828V13.4545H141.021V48.2035C141.021 48.6938 140.925 49.1495 140.732 49.5698C140.557 49.99 140.312 50.3581 139.997 50.6733C139.699 50.9708 139.34 51.2072 138.919 51.3823C138.499 51.5572 138.053 51.6449 137.581 51.645C137.16 51.645 136.731 51.5662 136.293 51.4086C135.873 51.251 135.496 50.9971 135.164 50.6469L110.211 24.5912V51.1196H103.382V16.3696C103.382 15.6693 103.575 15.0392 103.96 14.4789C104.363 13.9011 104.871 13.472 105.484 13.1918ZM227.598 13.1655C228.316 12.8853 229.06 12.842 229.831 13.0346C230.566 13.2447 231.17 13.6561 231.643 14.269C232.116 14.8817 232.352 15.5818 232.352 16.3696V51.1196H225.471V28.6889L213.362 49.9897C213.064 50.5325 212.644 50.9449 212.101 51.225C211.576 51.505 211.007 51.645 210.394 51.645C209.799 51.6449 209.239 51.5051 208.713 51.225C208.206 50.9449 207.803 50.5325 207.505 49.9897L195.344 28.6889V51.1196H188.515V16.3696C188.515 15.5818 188.743 14.8817 189.198 14.269C189.671 13.6561 190.284 13.2447 191.037 13.0346C191.404 12.9471 191.772 12.9205 192.139 12.9555C192.507 12.973 192.857 13.0518 193.19 13.1918C193.54 13.3144 193.855 13.4985 194.135 13.7436C194.415 13.9712 194.653 14.2508 194.845 14.5834L210.394 41.6118L225.944 14.5834C226.347 13.9183 226.898 13.4456 227.598 13.1655ZM179.805 13.4545C180.278 13.4546 180.724 13.5422 181.144 13.7172C181.564 13.8923 181.932 14.1374 182.248 14.4526C182.563 14.7678 182.808 15.1358 182.983 15.5561C183.158 15.9762 183.246 16.4224 183.246 16.895V51.1196H176.417V40.1928H152.41V51.1196H145.581V32.2866C145.581 29.5378 146.053 27.0078 146.999 24.6967C147.944 22.3853 149.258 20.3973 150.939 18.7338C152.62 17.0704 154.607 15.7742 156.901 14.8461C159.195 13.9181 161.699 13.4545 164.414 13.4545H179.805ZM271.662 20.2836H244.292V41.5326C244.292 42.4256 244.529 43.1087 245.001 43.5815C245.474 44.0542 246.166 44.2904 247.077 44.2905H271.662V51.1196H247.024C246.079 51.1195 245.046 50.9531 243.925 50.6205C242.805 50.2878 241.762 49.7446 240.799 48.9916C239.854 48.2212 239.057 47.232 238.409 46.0239C237.778 44.7982 237.463 43.301 237.463 41.5326V16.895C237.463 16.4224 237.551 15.9761 237.726 15.5561C237.901 15.1359 238.137 14.7677 238.435 14.4526C238.75 14.1374 239.118 13.8923 239.539 13.7172C239.959 13.5421 240.414 13.4545 240.905 13.4545H271.662V20.2836ZM268.588 35.728H247.024V28.8461H268.588V35.728ZM164.414 20.2836C164.203 20.2836 163.757 20.3191 163.074 20.3891C162.408 20.4416 161.629 20.5902 160.736 20.8354C159.86 21.0805 158.932 21.4565 157.952 21.9643C156.971 22.4721 156.07 23.1729 155.247 24.0659C154.424 24.9589 153.741 26.0798 153.198 27.4282C152.673 28.7588 152.41 30.3782 152.41 32.2866V33.3637H176.417V20.2836H164.414Z" fill="white"/>
<path d="M313.206 13.4481C315.464 13.4481 317.558 13.8418 319.484 14.6298C321.41 15.4177 323.073 16.5122 324.474 17.913C325.875 19.2963 326.969 20.9605 327.757 22.9042C328.563 24.8302 328.965 26.9317 328.965 29.2079V35.3534C328.965 37.6471 328.563 39.7574 327.757 41.6835C326.969 43.6096 325.875 45.2738 324.474 46.6747C323.073 48.0579 321.41 49.1436 319.484 49.9315C317.558 50.7195 315.464 51.1132 313.206 51.1132H294.767C294.277 51.1131 293.822 51.0255 293.402 50.8505C292.982 50.6754 292.614 50.4392 292.298 50.1415C292.001 49.8263 291.764 49.4582 291.589 49.038C291.414 48.6179 291.327 48.1628 291.327 47.6727V16.8885C291.327 16.416 291.414 15.9697 291.589 15.5497C291.764 15.1295 292.001 14.7613 292.298 14.4462C292.614 14.131 292.982 13.8859 293.402 13.7108C293.822 13.5358 294.277 13.4482 294.767 13.4481H313.206ZM357.874 13.4481C359.414 13.4481 360.797 13.6499 362.023 14.0526C363.249 14.4378 364.326 14.9624 365.254 15.6278C366.2 16.2756 366.996 17.0288 367.644 17.8866C368.309 18.7446 368.853 19.6471 369.273 20.5927C369.711 21.5206 370.026 22.4666 370.218 23.4296C370.411 24.375 370.507 25.2679 370.507 26.1083V26.6864C370.507 28.2447 370.314 29.6366 369.929 30.8622C369.544 32.0879 369.018 33.1735 368.353 34.119C367.705 35.0471 366.952 35.8442 366.094 36.5096C365.236 37.1749 364.335 37.7174 363.389 38.1376C362.461 38.5578 361.515 38.8649 360.552 39.0575C359.607 39.2501 358.714 39.3465 357.874 39.3466H342.429V32.5175H357.874C358.749 32.4474 359.537 32.2722 360.238 31.9921C360.956 31.6944 361.568 31.2997 362.076 30.8094C362.583 30.3192 362.978 29.7326 363.258 29.0497C363.538 28.3495 363.678 27.5616 363.678 26.6864V26.1083C363.591 25.2503 363.407 24.4619 363.126 23.744C362.846 23.0264 362.461 22.4138 361.971 21.9061C361.498 21.3984 360.921 21.0037 360.238 20.7235C359.555 20.4258 358.767 20.2772 357.874 20.2772H342.482C341.571 20.2772 340.88 20.5135 340.407 20.9862C339.934 21.459 339.698 22.142 339.698 23.035V51.1132H332.869V23.035C332.869 21.2841 333.184 19.7959 333.814 18.5702C334.462 17.3445 335.259 16.3544 336.205 15.6014C337.167 14.8487 338.209 14.3062 339.33 13.9735C340.45 13.6233 341.484 13.4481 342.429 13.4481H357.874ZM298.156 44.2841H313.206C314.536 44.2841 315.745 44.0744 316.831 43.6542C317.934 43.2164 318.88 42.6121 319.667 41.8417C320.455 41.0537 321.06 40.1168 321.48 39.0311C321.918 37.928 322.136 36.7017 322.136 35.3534V29.2079C322.136 27.8771 321.918 26.6597 321.48 25.5565C321.06 24.4534 320.455 23.5164 319.667 22.746C318.88 21.958 317.934 21.3537 316.831 20.9335C315.745 20.4958 314.536 20.2772 313.206 20.2772H298.156V44.2841Z" fill="white"/>
</svg>
