<svg width="24" height="24" viewBox="0 0 24 24" fill="none" xmlns="http://www.w3.org/2000/svg">
<path d="M10 6.5V5.5C10 4.94772 10.4477 4.5 11 4.5H13C13.5523 4.5 14 4.94772 14 5.5V6.5M10 6.5V10.5M10 6.5C6.68629 6.5 4 9.18629 4 12.5V15.5M4 15.5H3C2.44772 15.5 2 15.9477 2 16.5V18.5C2 19.0523 2.44772 19.5 3 19.5H21C21.5523 19.5 22 19.0523 22 18.5V16.5C22 15.9477 21.5523 15.5 21 15.5H20M4 15.5H20M20 15.5V12.5C20 9.18629 17.3137 6.5 14 6.5M14 6.5V10.5" stroke="currentColor" stroke-width="2" stroke-linecap="round"/>
</svg>
