<svg width="48" height="32" viewBox="0 0 48 32" fill="none" xmlns="http://www.w3.org/2000/svg">
<g clip-path="url(#clip0_204_6963)">
<path d="M0 0V32H48V0H0Z" fill="white"/>
<path d="M12.3513 3.42676L7.91333 10.0834L12.3513 3.42676ZM9.57733 11.1928L14.015 4.53609L9.57733 11.1928ZM15.679 5.64576L11.2417 12.3021L15.679 5.64576ZM32.3203 26.3544L34.354 23.3038L32.3203 26.3544ZM34.724 22.7491L36.7577 19.6981L34.724 22.7491ZM38.422 20.8074L36.388 23.8584L38.422 20.8074ZM36.018 24.4131L33.9843 27.4638L36.018 24.4131ZM35.6483 28.5734L37.6823 25.5224L35.6483 28.5734ZM38.0523 24.9678L40.0857 21.9168L38.0523 24.9678ZM7.91366 21.9168L12.3513 28.5734L7.91366 21.9168ZM14.0153 27.4638L11.9813 24.4131L14.0153 27.4638ZM11.6117 23.8584L9.57766 20.8074L11.6117 23.8584ZM11.242 19.6981L15.6793 26.3548L11.242 19.6981ZM36.758 12.3021L34.7243 9.25109L36.758 12.3021ZM34.3543 8.69642L32.3207 5.64576L34.3543 8.69642ZM33.9847 4.53643L38.4223 11.1928L33.9847 4.53643ZM40.0863 10.0834L38.0523 7.03242L40.0863 10.0834ZM37.6823 6.47776L35.649 3.42676L37.6823 6.47776Z" fill="black"/>
<path d="M12.3513 3.42676L7.91333 10.0834M9.57733 11.1928L14.015 4.53609M15.679 5.64576L11.2417 12.3021M32.3203 26.3544L34.354 23.3038M34.724 22.7491L36.7577 19.6981M38.422 20.8074L36.388 23.8584M36.018 24.4131L33.9843 27.4638M35.6483 28.5734L37.6823 25.5224M38.0523 24.9678L40.0857 21.9168M7.91366 21.9168L12.3513 28.5734M14.0153 27.4638L11.9813 24.4131M11.6117 23.8584L9.57766 20.8074M11.242 19.6981L15.6793 26.3548M36.758 12.3021L34.7243 9.25109M34.3543 8.69642L32.3207 5.64576M33.9847 4.53643L38.4223 11.1928M40.0863 10.0834L38.0523 7.03242M37.6823 6.47776L35.649 3.42676" stroke="black" stroke-width="1.33333"/>
<path d="M27.3284 18.2187C26.8913 18.8743 26.3294 19.4374 25.6747 19.8759C25.02 20.3143 24.2854 20.6195 23.5127 20.7741C21.9523 21.0862 20.3318 20.7657 19.0077 19.883C17.6836 19.0003 16.7644 17.6278 16.4523 16.0673C16.1401 14.5069 16.4607 12.8864 17.3434 11.5623C17.925 10.6856 18.6738 9.93213 19.547 9.34518C20.4202 8.75823 21.4006 8.34929 22.432 8.14177C23.4635 7.93425 24.5258 7.93223 25.558 8.13583C26.5903 8.33943 27.5722 8.74464 28.4476 9.32827C29.323 9.91189 30.0747 10.6625 30.6597 11.537C31.2446 12.4116 31.6513 13.3929 31.8564 14.4248C32.0615 15.4568 32.0611 16.519 31.8551 17.5508C31.6492 18.5826 31.2417 19.5636 30.656 20.4377" fill="#CD2E3A"/>
<path d="M24 15.9999C24.5885 15.1172 25.5035 14.5044 26.5438 14.2963C27.5841 14.0882 28.6645 14.302 29.5472 14.8904C30.4299 15.4789 31.0427 16.3939 31.2508 17.4342C31.4589 18.4745 31.2452 19.5549 30.6567 20.4376C30.0739 21.3118 29.3247 22.0626 28.4518 22.6472C27.5788 23.2318 26.5993 23.6387 25.5691 23.8448C23.4885 24.2609 21.3278 23.8335 19.5624 22.6566C17.7969 21.4796 16.5713 19.6496 16.1552 17.569C15.739 15.4884 16.1664 13.3277 17.3434 11.5623C16.7549 12.445 16.5412 13.5253 16.7493 14.5656C16.9573 15.6059 17.5701 16.521 18.4529 17.1094C19.3356 17.6979 20.416 17.9116 21.4562 17.7035C22.4965 17.4955 23.4116 16.8827 24 15.9999Z" fill="#0047A0"/>
</g>
<rect x="0.5" y="0.5" width="47" height="31" stroke="#C5C5C5"/>
<defs>
<clipPath id="clip0_204_6963">
<rect width="48" height="32" fill="white"/>
</clipPath>
</defs>
</svg>
